<?xml version="1.0" encoding="UTF-8"?>
<svg id="Layer_2" data-name="Layer 2" xmlns="http://www.w3.org/2000/svg" viewBox="0 0 20 20">
  <defs>
    <style>
      .cls-1 {
        fill: #ed1c24;
      }

      .cls-1, .cls-2 {
        stroke-width: 0px;
      }

      .cls-2 {
        fill: #fff;
      }
    </style>
  </defs>
  <g id="Layer_1-2" data-name="Layer 1">
    <g>
      <path class="cls-2" d="m20,10c0,5.52-4.48,10-10,10S0,15.52,0,10,4.48,0,10,0s10,4.48,10,10"/>
      <path class="cls-1" d="m9.99,4.32c-3.14,0-5.68,2.54-5.68,5.68s2.55,5.68,5.68,5.68,5.68-2.54,5.68-5.68-2.54-5.68-5.68-5.68m-.18,6.8c-.66.46-.66,2.8-1.73,2.64-.51-.08.52-1.76-.35-2.64-.87-.88-.52-1.76-.52-1.76-1.21,0-1.89-.87-1.82-1.14.53-1.93,2.34-2.82,2.64-2.88.1.07,1,.5.56,1.38-.19.39-1.51,1.18-2.25,1.41-.16.05.98,1.23.87,1.23,2.95-.51,3.03,1.46,2.6,1.76m3.98-2.29c0,.17,0,.62-.36,1.19-.38.62-.46,1.56-.92,1.56-.65,0,.36-2.52-.46-2.22-.92.34-2.15-.45-1.38-.9,1.53-.78,1.53-1.56.86-1.39-.29.07.29-.81.78-.73.66.12.5-.3.44-.42,1.9,1.46,1.9,3.08,1.9,3.08,0,0-.87-.53-.87-.18"/>
    </g>
  </g>
</svg>