<?xml version="1.0" encoding="UTF-8"?>
<svg id="Layer_2" data-name="Layer 2" xmlns="http://www.w3.org/2000/svg" viewBox="0 0 44 44">
  <defs>
    <style>
      .cls-1 {
        fill: #ed1c24;
      }

      .cls-1, .cls-2 {
        stroke-width: 0px;
      }

      .cls-2 {
        fill: #fff;
      }
    </style>
  </defs>
  <g id="Layer_1-2" data-name="Layer 1">
    <g>
      <path class="cls-1" d="m44,22c0,12.15-9.85,22-22,22S0,34.15,0,22,9.85,0,22,0s22,9.85,22,22"/>
      <path class="cls-2" d="m28.13,10.53l1.23,1.24-6.76,6.2-3.69-3.72-6.76,6.2,1.23,1.24,5.53-4.96,3.69,3.72,7.99-7.44,1.23,1.24v-3.72h-3.69Zm-10.93,15.74h-2.87c-.48,0-.86.4-.86.9v5.4c0,.5.38.9.86.9h2.87c.48,0,.86-.4.86-.9v-5.4c0-.5-.38-.9-.86-.9m6.55-3.94h-2.87c-.48,0-.86.41-.86.92v9.31c0,.51.39.92.86.92h2.87c.47,0,.86-.41.86-.92v-9.31c0-.51-.39-.92-.86-.92m7.2-3.28h-2.87c-.48,0-.86.41-.86.93v12.57c0,.51.39.92.86.92h2.87c.48,0,.86-.41.86-.92v-12.57c0-.51-.38-.93-.86-.93"/>
    </g>
  </g>
</svg>