<?xml version="1.0" encoding="UTF-8"?>
<svg id="Layer_2" data-name="Layer 2" xmlns="http://www.w3.org/2000/svg" viewBox="0 0 50 28.08">
  <defs>
    <style>
      .cls-1 {
        fill: #ed1c24;
      }

      .cls-1, .cls-2, .cls-3 {
        stroke-width: 0px;
      }

      .cls-2 {
        fill: #e2e2e2;
      }

      .cls-3 {
        fill: #5f6b77;
      }
    </style>
  </defs>
  <g id="Layer_1-2" data-name="Layer 1">
    <g>
      <path class="cls-1" d="m22.62,6.88s-4.65,4.18-6.48,4.39c-3.61.42-4.28-1.8-4.28-1.8l7.76-6.98s-3.38-.27-5.81,1.14c-1.65.96-3.12,2.29-3.12,2.29l-1.16-.03v15.1l1.47-.03,8.33,6.43h0c.44.43,1.05.69,1.72.69,1.33,0,2.41-1.04,2.44-2.34.43.38,1.01.62,1.63.62,1.25,0,2.28-.93,2.43-2.12.42.35.97.56,1.57.56,1.29,0,2.34-.98,2.44-2.22.44.41,1.03.66,1.68.66,1.35,0,2.45-1.08,2.45-2.41,0-.61-.24-1.17-.62-1.6h-.22s-12.21-12.34-12.21-12.34Z"/>
      <path class="cls-2" d="m39,5.38s-7.52-3.28-10.02-4.57c-4.89-2.53-9.35,1.68-9.35,1.68l-7.76,6.98s.67,2.23,4.28,1.8c1.84-.21,6.48-4.39,6.48-4.39l12.21,12.35h.22s5.41-.18,5.41-.18V5.31l-1.47.07Z"/>
      <path class="cls-1" d="m9.54,3.39H0v19.07h9.54V3.39ZM2.81,20.75c-.7,0-1.27-.56-1.27-1.25s.57-1.25,1.27-1.25,1.27.56,1.27,1.25-.57,1.25-1.27,1.25"/>
      <path class="cls-3" d="m40.46,3.39v19.07h9.54V3.39h-9.54Zm7.31,17.35c-.7,0-1.27-.56-1.27-1.25s.57-1.25,1.27-1.25,1.27.56,1.27,1.25-.57,1.25-1.27,1.25"/>
    </g>
  </g>
</svg>