<?xml version="1.0" encoding="UTF-8"?>
<svg id="Layer_2" data-name="Layer 2" xmlns="http://www.w3.org/2000/svg" viewBox="0 0 50 39.13">
  <defs>
    <style>
      .cls-1 {
        fill: #ed1c24;
      }

      .cls-1, .cls-2, .cls-3 {
        stroke-width: 0px;
      }

      .cls-2 {
        fill: #fcd6cf;
      }

      .cls-3 {
        fill: #5f6b77;
      }
    </style>
  </defs>
  <g id="Layer_1-2" data-name="Layer 1">
    <g>
      <path class="cls-3" d="m41.68,28.02h-.07s0-3.07,0-3.07c.54-.44,1.05-.97,1.49-1.57,1.71-2.34,2.51-5.79,2.51-9.36,0-4.76-4.54-7.78-7.92-7.78s-7.92,3.02-7.92,7.78c0,3.57.81,7.01,2.51,9.36.45.62.98,1.16,1.54,1.61v3.03h-.07c-4.27,0-8.32,3.41-8.32,7.62v.27h24.55v-.27c0-4.21-4.05-7.62-8.32-7.62"/>
      <path class="cls-3" d="m16.23,28.02h-.07s0-3.07,0-3.07c.55-.44,1.05-.97,1.49-1.57,1.71-2.34,2.51-5.79,2.51-9.36,0-4.76-4.54-7.78-7.92-7.78s-7.92,3.02-7.92,7.78c0,3.57.8,7.01,2.51,9.36.45.62.98,1.16,1.54,1.61v3.03h-.07c-4.27,0-8.32,3.41-8.32,7.62v.27h24.54v-.27c0-4.21-4.05-7.62-8.32-7.62"/>
      <path class="cls-2" d="m24.94,0c-4.46,0-10.45,3.99-10.45,10.27,0,4.71,1.06,9.25,3.32,12.34,1.89,2.6,4.77,4.15,7.13,4.15s5.24-1.55,7.13-4.15c2.25-3.09,3.32-7.63,3.32-12.34,0-6.28-5.98-10.27-10.45-10.27"/>
      <path class="cls-1" d="m30.19,28.73h-.09s0-2.35,0-2.35l-5.17,2.12-5.08-2.12v2.36h-.09c-5.63,0-10.97,4.5-10.97,10.05v.35h32.38v-.35c0-5.55-5.34-10.06-10.97-10.06"/>
    </g>
  </g>
</svg>