<?xml version="1.0" encoding="UTF-8"?>
<svg id="Layer_2" data-name="Layer 2" xmlns="http://www.w3.org/2000/svg" viewBox="0 0 43.97 43.96">
  <defs>
    <style>
      .cls-1 {
        fill: #ed1c24;
      }

      .cls-1, .cls-2 {
        stroke-width: 0px;
      }

      .cls-2 {
        fill: #fff;
      }
    </style>
  </defs>
  <g id="Layer_1-2" data-name="Layer 1">
    <g>
      <path class="cls-1" d="m21.98,43.96c12.14,0,21.98-9.84,21.98-21.98S34.12,0,21.98,0,0,9.84,0,21.98s9.84,21.98,21.98,21.98"/>
      <path class="cls-2" d="m12.3,13.91c0-1.43,1.16-2.58,2.58-2.58h14.22c.68,0,1.34.27,1.83.76.48.48.76,1.14.76,1.83v17.43c0,.44-.22.85-.59,1.09-.37.24-.83.27-1.23.09l-7.33-3.33-.63-4.64c.06-.03.13-.03.2,0l3.13,1.27c.08.03.18.02.25-.03.07-.05.11-.14.1-.23l-.24-3.37c0-.07.02-.13.06-.18l2.18-2.58c.06-.07.08-.16.05-.25-.03-.09-.1-.15-.18-.17l-3.28-.81c-.07-.02-.12-.06-.16-.11l-1.78-2.87c-.05-.08-.13-.12-.22-.12s-.17.05-.22.12l-1.78,2.87c-.03.06-.09.1-.15.11l-3.28.81c-.09.02-.16.08-.18.17-.03.08-.01.18.05.25l2.18,2.58s.06.12.06.18l-.24,3.36c0,.09.03.18.11.23.07.05.17.06.25.03l3.13-1.27-.44,4.64-7.33,3.33c-.4.18-.86.15-1.23-.09-.37-.24-.59-.65-.59-1.09V13.91h0Z"/>
    </g>
  </g>
</svg>