<?xml version="1.0" encoding="UTF-8"?>
<svg id="Layer_2" data-name="Layer 2" xmlns="http://www.w3.org/2000/svg" viewBox="0 0 44 44">
  <defs>
    <style>
      .cls-1 {
        fill: #ed1c24;
      }

      .cls-1, .cls-2 {
        stroke-width: 0px;
      }

      .cls-2 {
        fill: #fff;
      }
    </style>
  </defs>
  <g id="Layer_1-2" data-name="Layer 1">
    <g>
      <path class="cls-1" d="m44,22c0,12.15-9.85,22-22,22S0,34.15,0,22,9.85,0,22,0s22,9.85,22,22"/>
      <path class="cls-2" d="m15.53,15.28c.33-.43.7-.82,1.1-1.18l-1.99-2.02c-.15-.15-.35-.24-.57-.24s-.42.09-.56.24c-.32.32-.32.83,0,1.15l2.02,2.05Zm6.46-3.25h.02c.26,0,.52.02.78.04v-2.75c0-.45-.36-.81-.8-.81-.21,0-.42.09-.57.24-.15.15-.23.36-.23.57v2.75c.26-.03.52-.04.78-.04h.02Zm6.46,3.25l2.02-2.05c.31-.32.31-.83,0-1.15-.15-.15-.35-.24-.56-.24s-.42.09-.57.24l-1.99,2.02c.4.36.76.75,1.1,1.18m-14.88,5.77c0-.39.03-.78.07-1.16h-2.84c-.21,0-.42.09-.57.24-.15.15-.23.36-.23.57,0,.45.36.81.8.81h2.77c0-.16,0-.31,0-.47m19.61-1.16h-2.84c.07.54.09,1.08.07,1.63h2.78c.44,0,.8-.37.8-.81,0-.44-.36-.81-.8-.81h0Zm-4.31,6.67c-.3.45-.64.88-1,1.28l1.46,1.49c.15.15.35.24.57.24s.42-.09.57-.24c.31-.32.31-.83,0-1.15l-1.59-1.62Zm-15.35,1.62c-.32.32-.32.83,0,1.15.15.15.35.24.56.24s.42-.09.57-.24l1.46-1.49c-.36-.41-.7-.83-1-1.28l-1.59,1.62Zm15.79-7.13c0-1.62-.52-3.19-1.48-4.49-.82-1.11-1.93-1.96-3.21-2.46l-.54-.2c-.43-.13-.87-.21-1.31-.26h-.06c-.47-.05-.95-.05-1.42,0h-.07c-.45.06-.89.14-1.31.27l-.53.16c-1.28.54-2.4,1.4-3.22,2.51-.96,1.3-1.48,2.87-1.48,4.49,0,1.21.2,2.21.52,3.03.48,1.23,1.21,2.07,1.8,2.7.3.31.55.59.73.81.18.23.27.41.29.55.13.69.14,1.56.14,1.78v.06c0,1,.79,1.8,1.78,1.8h4.1c.98,0,1.77-.81,1.77-1.8v-.06c0-.22.01-1.09.14-1.78.03-.12.07-.24.14-.34.14-.23.41-.53.73-.88.49-.53,1.12-1.19,1.62-2.13.5-.94.86-2.16.86-3.74m-5.28,11.24h-4.07c-.21,0-.4.08-.54.23-.14.15-.22.34-.22.55,0,.43.34.77.76.77h4.07c.42,0,.76-.35.76-.77,0-.21-.08-.4-.22-.55-.14-.15-.34-.23-.54-.23h0Zm-1.68,2.35h-2.09s0,.05,0,.07c0,.43.65.78,1.24.78h.99c.6,0,1.24-.35,1.24-.78v-.07h-1.39Z"/>
    </g>
  </g>
</svg>