<?xml version="1.0" encoding="UTF-8"?>
<svg id="Layer_2" data-name="Layer 2" xmlns="http://www.w3.org/2000/svg" viewBox="0 0 35 35">
  <defs>
    <style>
      .cls-1 {
        fill: #ed1c24;
      }

      .cls-1, .cls-2 {
        stroke-width: 0px;
      }

      .cls-2 {
        fill: #feebe7;
      }
    </style>
  </defs>
  <g id="Layer_1-2" data-name="Layer 1">
    <g>
      <path class="cls-2" d="m35,17.5c0,9.67-7.84,17.5-17.5,17.5S0,27.17,0,17.5,7.83,0,17.5,0s17.5,7.84,17.5,17.5"/>
      <path class="cls-1" d="m23.22,8.65c-.7-.19-.47.93-.82,1.23-.08,1-.18,1.98-.5,2.74-.39.07-.9.1-.91-.32.23,0,.34-.11.37-.32-.32-.06-.53.12-.5.27-.64-.46-1.37-.82-2.05-1.23.29-.03.25-.39.41-.55.05.21.15.37.41.36.08-.17.02-.37,0-.5-.2-.11-.47.08-.5-.23.08-.1.35-.02.5-.05-.02-.28.14-.51.05-.73-.21-.12-.41,0-.5.14-.03-.34-.41-.09-.68-.14-.19-.42-1.14-.08-1.23-.59-.15-.04-.09.12-.18.14-.15-.11-.27-.25-.55-.23-.06.08-.12.15-.09.32.24-.04.36.04.32.27-.38.38-1.56-.04-1.42.87-.38.07-.64.73-.27,1.01-.25-.02-.38.08-.64.04-.31-.12-.29-.64-.64-.73-.45-.12-.95.2-1.1.59-.11,0-.14-.07-.23-.09-.03.12.06.36-.05.41h-.37c-.17.3-.27.42-.09.78h-.46v.55c-.12-.08-.22-.18-.27-.32-.53.14-.38.53-.46,1.05-.1.64-.64,1.08-1.19,1.14-.51.05-.64.1-.87.41-.83.4-1.85.61-2.15,1.55-.03-.12-.09-.21-.18-.27-.04.7-.42,1.86.18,2.15v.37c.08.03.27-.06.27.05-.02.07.05.24-.04.23-.18-.11-.33-.44-.64-.27.23.54.75.81.87,1.46.11.1.24.19.37.27v.27c.52.26.26,1.29.82,1.51.08.19.03.51.05.78-.26.19-.42.52-.18.87h.36c.37.37,1.85.36,1.83-.37.51-.48,1.67-.31,2.56-.41v-.5c.28-.51,1.18-.41,1.6-.78.97.07,1.42-.76,2.33-.46-.03.14.05.17.05.28.34.05.71.08,1.05.14-.08.14-.09.34.14.23-.12.13.04.23.05.37.88-.05.16,1.23,1.05,1.14-.08-.75.7-.63.82-1.19.11.35-.29.51-.18,1-.32-.08-.29.2-.36.37.24,0,.52.03.64-.09.08-.1,0-.37.09-.46.11.08.12.25.18.37-.1.11-.17.26-.32.32-.14-.15-.75-.08-.73.23.37.34.88-.02,1.23-.18.32.16.49.48.41,1.05.18.38.57.55.91.78.49-.17,1.07.7,1.51,0,.3.21.65.31.91.64.08-.07.06-.24.14-.32.3,0,.43-.35.73-.46.55-.19.86.07,1.05-.37.07-.15.02-.6.09-.78.13-.14.3-.22.41-.36.3-.4.42-1.06.73-1.42.16-.19.5-.24.64-.46.13-.19.09-.47.14-.73.1-.56.53-1.13.46-1.73.07-.1.14-.2.14-.37-.04-.13-.17-.01-.18-.09.04-.64.06-1.03.32-1.42-.13,0-.02-.25-.18-.23-.22.06-.02.27-.23.32-.31-.38-.56-1.04-.96-1.19.05-.19.06-.4.05-.64-.23-.08-.28-.14-.5-.27-.13-.02-.04.17-.14.18.04-.54-.16-.72-.32-1-.09-.17-.12-.38-.18-.46-.16-.21-.56-.21-.55-.55-.75-.02-.67-.85-.73-1.55-.51-.28-.23-1.36-.73-1.64-.17-.03-.47.04-.5,0,.1-.68-.4-.94-.23-1.55-.08-.03-.27.05-.27-.05.03-.27-.05-.43-.14-.59"/>
    </g>
  </g>
</svg>