<?xml version="1.0" encoding="UTF-8"?>
<svg id="Layer_2" data-name="Layer 2" xmlns="http://www.w3.org/2000/svg" viewBox="0 0 20 20">
  <defs>
    <style>
      .cls-1 {
        fill: #ed1c24;
      }

      .cls-1, .cls-2 {
        stroke-width: 0px;
      }

      .cls-2 {
        fill: #fff;
      }
    </style>
  </defs>
  <g id="Layer_1-2" data-name="Layer 1">
    <g>
      <path class="cls-2" d="m20,10c0,5.52-4.48,10-10,10S0,15.52,0,10,4.48,0,10,0s10,4.48,10,10"/>
      <path class="cls-1" d="m10,4.32c-2.37,0-4.31,1.9-4.31,4.23,0,1.83,2.65,5.38,3.79,6.88.12.16.31.25.51.25s.39-.09.51-.25c1.14-1.5,3.79-5.05,3.79-6.88,0-2.33-1.93-4.23-4.31-4.23m0,5.77c-1.02,0-1.84-.81-1.84-1.8s.82-1.81,1.84-1.81,1.84.81,1.84,1.81-.82,1.8-1.84,1.8"/>
    </g>
  </g>
</svg>