<?xml version="1.0" encoding="UTF-8"?>
<svg id="Layer_2" data-name="Layer 2" xmlns="http://www.w3.org/2000/svg" xmlns:xlink="http://www.w3.org/1999/xlink" viewBox="0 0 160.88 35">
  <defs>
    <style>
      .cls-1 {
        fill: #ed1c24;
      }

      .cls-1, .cls-2, .cls-3 {
        stroke-width: 0px;
      }

      .cls-2 {
        fill: none;
      }

      .cls-3 {
        fill: #feebe7;
      }

      .cls-4 {
        clip-path: url(#clippath);
      }
    </style>
    <clipPath id="clippath">
      <rect class="cls-2" x="69.3" y="6.35" width="22.29" height="22.29"/>
    </clipPath>
  </defs>
  <g id="Layer_1-2" data-name="Layer 1">
    <g>
      <g>
        <path class="cls-3" d="m35,17.5c0,9.67-7.84,17.5-17.5,17.5S0,27.17,0,17.5,7.83,0,17.5,0s17.5,7.84,17.5,17.5"/>
        <path class="cls-1" d="m9.67,7.79h15.66c.53,0,.94.41.94.94s-.41.94-.94.94h-15.66c-.53,0-.94-.41-.94-.94s.41-.94.94-.94"/>
        <path class="cls-1" d="m26.55,25.95c0,.56-.63,1.25-1.19,1.25h-15.75c-.56,0-1.19-.69-1.19-1.25v-6.57h1.57v6.26h15.03v-6.26h1.53v6.57Z"/>
        <path class="cls-1" d="m25.7,18.53c-1.53,0-2.76-1.22-2.76-2.69,0,1.5-1.22,2.69-2.72,2.69s-2.72-1.22-2.72-2.69c0,1.5-1.25,2.69-2.76,2.69s-2.73-1.22-2.73-2.69c0,1.5-1.25,2.69-2.75,2.69s-2.73-1.22-2.73-2.69l1.88-4.92h18.1l1.94,4.92c0,1.5-1.25,2.69-2.76,2.69"/>
        <path class="cls-3" d="m97.94,17.5c0,9.67-7.84,17.5-17.5,17.5s-17.5-7.83-17.5-17.5S70.78,0,80.44,0s17.5,7.84,17.5,17.5"/>
      </g>
      <g class="cls-4">
        <path class="cls-1" d="m91.21,26.73h-1.08v-13.49c0-.36-.19-.7-.51-.88l-5.52-3.22c-.31-.18-.71-.18-1.02,0-.31.18-.51.52-.51.88v16.71h-1.16V7.37c0-.34-.17-.66-.46-.85-.29-.18-.65-.22-.96-.09l-8.63,3.71c-.38.16-.62.53-.62.94v15.65h-1.09c-.2,0-.36.16-.36.36v1.18c0,.2.16.36.36.36h21.55c.2,0,.36-.16.36-.36v-1.18c.01-.2-.15-.36-.35-.36m-15.96-1.25c0,.2-.16.36-.36.36h-1.15c-.2,0-.36-.16-.36-.36v-1.15c0-.2.16-.36.36-.36h1.15c.2,0,.36.16.36.36v1.15Zm0-2.88c0,.2-.16.36-.36.36h-1.15c-.2,0-.36-.16-.36-.36v-1.15c0-.2.16-.36.36-.36h1.15c.2,0,.36.16.36.36v1.15Zm0-2.89c0,.2-.16.36-.36.36h-1.15c-.2,0-.36-.16-.36-.36v-1.15c0-.2.16-.36.36-.36h1.15c.2,0,.36.16.36.36v1.15Zm0-2.89c0,.2-.16.36-.36.36h-1.15c-.2,0-.36-.16-.36-.36v-1.15c0-.2.16-.36.36-.36h1.15c.2,0,.36.16.36.36v1.15Zm0-2.88c0,.2-.16.36-.36.36h-1.15c-.2,0-.36-.16-.36-.36v-1.15c0-.2.16-.36.36-.36h1.15c.2,0,.36.16.36.36v1.15Zm3.48,11.55c0,.2-.16.36-.36.36h-1.15c-.2,0-.35-.16-.35-.36v-1.15c0-.2.16-.36.35-.36h1.14c.2,0,.36.16.36.36v1.15h0Zm0-2.88c0,.2-.16.36-.36.36h-1.15c-.2,0-.35-.16-.35-.36v-1.15c0-.2.16-.36.35-.36h1.14c.2,0,.36.16.36.36v1.15h0Zm0-2.89c0,.2-.16.36-.36.36h-1.15c-.2,0-.35-.16-.35-.36v-1.15c0-.2.16-.36.35-.36h1.14c.2,0,.36.16.36.36v1.15h0Zm0-2.89c0,.2-.16.36-.36.36h-1.15c-.2,0-.35-.16-.35-.36v-1.15c0-.2.16-.36.35-.36h1.14c.2,0,.36.16.36.36v1.15h0Zm0-2.88c0,.2-.16.36-.36.36h-1.15c-.2,0-.35-.16-.35-.36v-1.15c0-.2.16-.36.35-.36h1.14c.2,0,.36.16.36.36v1.15h0Zm0-2.89c0,.2-.16.36-.36.36h-1.15c-.2,0-.35-.16-.35-.36v-1.15c0-.2.16-.36.35-.36h1.14c.2,0,.36.16.36.36v1.15h0Zm8.51,14.44c0,.2-.16.36-.36.36h-1.15c-.2,0-.36-.16-.36-.36v-1.15c0-.2.16-.36.36-.36h1.15c.2,0,.36.16.36.36v1.15Zm0-2.88c0,.2-.16.36-.36.36h-1.15c-.2,0-.36-.16-.36-.36v-1.15c0-.2.16-.36.36-.36h1.15c.2,0,.36.16.36.36v1.15Zm0-2.89c0,.2-.16.36-.36.36h-1.15c-.2,0-.36-.16-.36-.36v-1.15c0-.2.16-.36.36-.36h1.15c.2,0,.36.16.36.36v1.15Zm0-2.89c0,.2-.16.36-.36.36h-1.15c-.2,0-.36-.16-.36-.36v-1.15c0-.2.16-.36.36-.36h1.15c.2,0,.36.16.36.36v1.15Zm0-2.88c0,.2-.16.36-.36.36h-1.15c-.2,0-.36-.16-.36-.36v-1.15c0-.2.16-.36.36-.36h1.15c.2,0,.36.16.36.36v1.15Z"/>
      </g>
      <path class="cls-3" d="m160.88,17.5c0,9.67-7.84,17.5-17.5,17.5s-17.5-7.83-17.5-17.5S133.72,0,143.38,0s17.5,7.84,17.5,17.5"/>
      <path class="cls-1" d="m156.4,19.17l-13.02-13.02-13.02,13.02c-.66.66-.66,1.73,0,2.39.66.66,1.73.66,2.39,0l.49-.49v7.77h20.27v-7.77l.5.49c.33.33.76.49,1.19.49s.86-.16,1.19-.49c.66-.66.66-1.73,0-2.39m-4.57,7.97h-10.14v-6.76h-3.38v6.76h-3.38v-7.77l8.45-8.45,8.45,8.45v7.77Z"/>
      <path class="cls-1" d="m145.07,20.39h3.38v3.38h-3.38v-3.38Zm-6.76-11.56v-1.96h-3.38v5.34l3.38-3.38Z"/>
    </g>
  </g>
</svg>