<?xml version="1.0" encoding="UTF-8"?>
<svg id="Layer_2" data-name="Layer 2" xmlns="http://www.w3.org/2000/svg" viewBox="0 0 35 35">
  <defs>
    <style>
      .cls-1 {
        fill: #ed1c24;
      }

      .cls-1, .cls-2 {
        stroke-width: 0px;
      }

      .cls-2 {
        fill: #feebe7;
      }
    </style>
  </defs>
  <g id="Layer_1-2" data-name="Layer 1">
    <g>
      <path class="cls-2" d="m35,17.5c0,9.67-7.84,17.5-17.5,17.5S0,27.17,0,17.5,7.83,0,17.5,0s17.5,7.84,17.5,17.5"/>
      <path class="cls-1" d="m22,23.81c-.96.7-2.01,1.22-3.32,1.31v2.18h-2.27v-2.18c-1.4-.18-2.45-.61-3.32-1.31-1.14-.87-1.49-1.83-1.66-3.06l3.5-.87c0,1.14,1.14,2.45,2.97,2.45,1.05,0,2.27-.52,2.27-1.83,0-1.14-1.22-1.92-2.45-2.18-1.31-.26-4.02-1.22-4.72-2.01-.7-.79-.96-1.92-.96-3.32,0-1.14.52-2.27,1.31-2.97.79-.7,1.75-1.14,3.06-1.31v-1.83h2.27v1.83c1.22.17,2.27.52,3.15,1.22.96.87,1.49,1.92,1.49,2.62l-3.5.79c0-.87-1.31-1.92-2.18-1.92-1.14,0-2.01.35-2.01,1.75,0,1.05.79,1.31,2.1,1.75,2.27.7,3.93,1.66,4.72,2.45.79.79,1.14,1.83,1.14,3.06.09,1.57-.44,2.62-1.57,3.41"/>
    </g>
  </g>
</svg>