<?xml version="1.0" encoding="UTF-8"?>
<svg id="Layer_2" data-name="Layer 2" xmlns="http://www.w3.org/2000/svg" viewBox="0 0 9.8 9.98">
  <defs>
    <style>
      .cls-1 {
        fill: #ed1c24;
        stroke-width: 0px;
      }
    </style>
  </defs>
  <g id="Layer_1-2" data-name="Layer 1">
    <g>
      <path class="cls-1" d="m8.7,0H1.1C.49,0,0,.49,0,1.1v7.78c0,.12,0,.24.06.37.18.55.86.86,1.41.67l3.43-1.23,3.43,1.23c.12.06.25.06.37.06.61,0,1.1-.49,1.1-1.1V1.1c0-.61-.49-1.1-1.1-1.1m.43,8.82c0,.31-.31.49-.55.37l-3.68-1.35-3.67,1.35c-.12.06-.25.06-.31,0-.12-.06-.18-.12-.25-.24V1.1c0-.24.18-.43.43-.43h7.6c.24,0,.43.18.43.43v7.72Z"/>
      <path class="cls-1" d="m6.43,4.04h-1.23v-1.23c0-.18-.12-.3-.31-.3s-.31.12-.31.3v1.23h-1.22c-.18,0-.31.12-.31.31s.12.31.31.31h1.22v1.22c0,.18.12.31.31.31s.31-.12.31-.31v-1.22h1.23c.18,0,.31-.12.31-.31s-.12-.31-.31-.31"/>
    </g>
  </g>
</svg>