<?xml version="1.0" encoding="UTF-8"?>
<svg id="Layer_2" data-name="Layer 2" xmlns="http://www.w3.org/2000/svg" viewBox="0 0 210.22 31.02">
  <defs>
    <style>
      .cls-1 {
        fill: #555554;
        font-family: CenturyGothic, 'Century Gothic';
        font-size: 9px;
      }

      .cls-2 {
        fill: #ed1c24;
      }

      .cls-2, .cls-3 {
        stroke-width: 0px;
      }

      .cls-3 {
        fill: #5f6b77;
      }
    </style>
  </defs>
  <g id="Layer_1-2" data-name="Layer 1">
    <g>
      <text class="cls-1" transform="translate(0 28.26)"><tspan x="0" y="0">Modem/Router</tspan></text>
      <g>
        <path class="cls-3" d="m38.13,5.59h-17.03c-.37.02-.66.33-.66.7v5.13c0,.39.32.71.71.71h16.94c.39,0,.71-.33.71-.71v-5.13c0-.37-.3-.67-.67-.7m-.74,5.13h-15.53v-3.73h15.53v3.73Z"/>
        <path class="cls-3" d="m34.76,9.57c.39,0,.71-.32.71-.71,0-.92-1.41-.92-1.41,0,0,.4.32.71.7.71"/>
        <path class="cls-3" d="m32.19,9.57c.39,0,.7-.32.7-.71,0-.92-1.41-.92-1.41,0,0,.4.32.71.71.71"/>
        <path class="cls-3" d="m24.46,9.57c.39,0,.71-.32.71-.71,0-.92-1.41-.92-1.41,0,0,.4.31.71.7.71"/>
        <path class="cls-3" d="m29.61,9.57c.4,0,.71-.32.71-.71,0-.92-1.41-.92-1.41,0,0,.4.32.71.7.71"/>
      </g>
      <text class="cls-1" transform="translate(192.37 28.26)"><tspan x="0" y="0">UPS</tspan></text>
      <path class="cls-3" d="m209.44,5.19h-.75v-1.77c0-.42-.35-.78-.78-.78h-16.92c-.42,0-.78.35-.78.78v9.42c0,.42.35.78.78.78h16.92c.42,0,.78-.35.78-.78v-1.77h.75c.42,0,.78-.35.78-.78v-4.35c0-.42-.36-.75-.78-.75m-10.24,6.08c-.16.2-.38.29-.62.29h-5.54c-.42,0-.78-.35-.78-.78v-5.34c0-.42.35-.78.78-.78h4.19c.36,0,.67.24.75.58l1.35,5.37c.07.24.02.49-.13.67"/>
      <text class="cls-1" transform="translate(88.74 28.26)"><tspan x="0" y="0">POE Switch</tspan></text>
      <path class="cls-3" d="m116.58,0l.34,1.49h5.59c.27,0,.52.24.52.6v13.56c0,.35-.25.6-.52.6h-18.96c-.13,0-.25-.05-.34-.15-.12-.12-.18-.28-.18-.45V2.08c0-.35.25-.6.52-.6h5.59l.35-1.49h7.08Zm5.68,2.42h-18.45v12.89h2.1V6.21h2.8c.06,0,.11-.05.13-.11v-.05s0-.96,0-.96h2.41c.06,0,.11-.05.13-.11v-.05s0-2.01,0-2.01h3.28v2.01c0,.07.04.13.09.15h.04s2.41,0,2.41,0v.96c0,.07.04.13.09.15h.04s2.8,0,2.8,0v9.1h2.1V2.42h0Zm-12.91,11.62h-.68v1.28s.68,0,.68,0v-1.28Zm1.94,0h-.68v1.28s.68,0,.68,0v-1.28Zm1.94,0h-.68v1.28h.68v-1.28Zm1.94,0h-.68v1.28s.68,0,.68,0v-1.28Zm1.94,0h-.68v1.28s.68,0,.68,0v-1.28h0Zm-3.3-7.6h-1.21l-1.13,3.79h1.27c.07,0,.13.04.17.11.03.07.04.16,0,.23l-.82,2.03,2.48-3.63h-1.7c-.07,0-.14-.04-.18-.12-.03-.08-.03-.16,0-.24l1.09-2.17Z"/>
      <path class="cls-2" d="m70.31,15.13v4.06c0,.26-.21.47-.47.47s-.47-.21-.47-.47v-4.06h-4.06c-.26,0-.47-.21-.47-.47s.21-.47.47-.47h4.06v-4.06c0-.26.21-.47.47-.47s.47.21.47.47v4.06h4.06c.26,0,.47.21.47.47s-.21.47-.47.47h-4.06Z"/>
      <path class="cls-2" d="m158.68,15.13v4.06c0,.26-.21.47-.47.47s-.47-.21-.47-.47v-4.06h-4.06c-.26,0-.47-.21-.47-.47s.21-.47.47-.47h4.06v-4.06c0-.26.21-.47.47-.47s.47.21.47.47v4.06h4.06c.26,0,.47.21.47.47s-.21.47-.47.47h-4.06Z"/>
    </g>
  </g>
</svg>