<?xml version="1.0" encoding="UTF-8"?>
<svg id="Layer_2" data-name="Layer 2" xmlns="http://www.w3.org/2000/svg" viewBox="0 0 50 43.34">
  <defs>
    <style>
      .cls-1 {
        fill: #ed1c24;
      }

      .cls-1, .cls-2 {
        stroke-width: 0px;
      }

      .cls-2 {
        fill: #e2e2e2;
      }
    </style>
  </defs>
  <g id="Layer_1-2" data-name="Layer 1">
    <g>
      <path class="cls-1" d="m29.05,39.32h0c-.39,3.31-5.38,5.37-10.39,3.01-7.75-3.65-14.01-9.9-17.66-17.66-2.35-5-.3-10,3.01-10.38,2.23,12.79,12.24,22.8,25.03,25.03"/>
      <path class="cls-1" d="m12.04,24.24c-1.04.71-2.07,1.42-3.11,2.12-2.43-3.55-4.13-7.65-4.91-12.07,1.23-.22,2.47-.43,3.7-.65,1.38-.21,2.69.83,3.11,2.25.47,1.63,1.11,3.18,1.9,4.65.68,1.28.44,2.89-.7,3.7"/>
      <path class="cls-1" d="m29.7,35.61c-.22,1.23-.43,2.47-.65,3.7-4.43-.77-8.52-2.48-12.07-4.91.71-1.03,1.41-2.07,2.12-3.11.81-1.14,2.42-1.38,3.7-.7,1.47.78,3.02,1.42,4.65,1.9,1.42.42,2.46,1.73,2.25,3.11"/>
      <path class="cls-2" d="m20.8,21.31c-2.87-2.26-4.64-5.32-4.64-8.68,0-6.97,7.58-12.63,16.92-12.63s16.92,5.65,16.92,12.63-7.58,12.63-16.92,12.63c-2.58,0-5.03-.43-7.22-1.21l-7.86,3.19c-.49.2-.95-.36-.65-.8l3.46-5.13Z"/>
      <path class="cls-1" d="m39.55,12.63c0,.96.78,1.74,1.74,1.74s1.74-.78,1.74-1.74-.78-1.74-1.74-1.74-1.74.78-1.74,1.74"/>
      <path class="cls-1" d="m34.08,12.63c0,.96.78,1.74,1.74,1.74s1.74-.78,1.74-1.74-.78-1.74-1.74-1.74-1.74.78-1.74,1.74"/>
      <path class="cls-1" d="m28.6,12.63c0,.96.78,1.74,1.74,1.74s1.74-.78,1.74-1.74-.78-1.74-1.74-1.74-1.74.78-1.74,1.74"/>
      <path class="cls-1" d="m23.13,12.63c0,.96.78,1.74,1.74,1.74s1.74-.78,1.74-1.74-.78-1.74-1.74-1.74-1.74.78-1.74,1.74"/>
    </g>
  </g>
</svg>