<?xml version="1.0" encoding="UTF-8"?>
<svg id="Layer_2" data-name="Layer 2" xmlns="http://www.w3.org/2000/svg" xmlns:xlink="http://www.w3.org/1999/xlink" viewBox="0 0 75.49 14.66">
  <defs>
    <style>
      .cls-1 {
        fill: #005d21;
      }

      .cls-1, .cls-2, .cls-3, .cls-4 {
        stroke-width: 0px;
      }

      .cls-2 {
        fill: none;
      }

      .cls-3 {
        fill: #fff;
      }

      .cls-4 {
        fill: #1bb24b;
      }

      .cls-5 {
        clip-path: url(#clippath);
      }
    </style>
    <clipPath id="clippath">
      <path class="cls-2" d="m13.03,0h0s-4.06,0-4.06,0c.68.04,1.98.31,2.58,1.71l3.98,9.26c.84,1.97,3.46,3.69,5.6,3.69h33.23c2.14,0,4.76-1.72,5.6-3.69,0,0,3.37-7.84,3.98-9.26.6-1.39,1.89-1.66,2.57-1.71h-3.7s-49.78,0-49.78,0Z"/>
    </clipPath>
  </defs>
  <g id="Layer_1-2" data-name="Layer 1">
    <g>
      <g>
        <path class="cls-1" d="m9.93,2.27s-.02-.04-.03-.07c-.01-.02-.02-.04-.03-.06,0,0,0-.01,0-.02,0-.01-.02-.03-.02-.04,0,0,0-.01-.01-.02,0-.02-.01-.03-.02-.04,0,0,0-.01,0-.02-.01-.01-.02-.03-.03-.04,0,0,0-.01,0-.02,0-.02-.02-.03-.03-.05,0,0,0,0,0-.01-.01-.02-.02-.03-.03-.05,0,0,0,0,0,0-.01-.02-.03-.04-.04-.05,0,0,0,0,0,0-.02-.02-.03-.04-.04-.06-.02-.03-.05-.06-.07-.09,0,0,0,0,0,0-.08-.09-.16-.18-.24-.27,0,0,0,0,0,0h0s-.06-.06-.09-.08c0,0,0,0,0,0h0c-.09-.08-.19-.16-.29-.24h0s-.07-.05-.1-.08c0,0,0,0,0,0,0,0,0,0,0,0-.07-.05-.14-.1-.22-.14,0,0,0,0,0,0-.04-.02-.07-.04-.11-.07,0,0,0,0,0,0,0,0,0,0,0,0-.04-.02-.08-.04-.11-.06,0,0,0,0,0,0-.08-.04-.16-.08-.24-.12,0,0,0,0-.01,0-.04-.02-.08-.04-.12-.05,0,0,0,0-.01,0-.04-.02-.08-.03-.12-.05h0s-.09-.03-.13-.05c0,0,0,0,0,0,0,0,0,0,0,0-.04-.02-.08-.03-.13-.04,0,0,0,0,0,0,0,0,0,0-.01,0-.04-.01-.08-.03-.13-.04,0,0,0,0,0,0,0,0,0,0-.01,0-.09-.03-.18-.05-.27-.07,0,0,0,0-.01,0,0,0,0,0,0,0-.04-.01-.09-.02-.13-.03,0,0-.01,0-.01,0,0,0,0,0-.01,0-.04-.01-.09-.02-.13-.03,0,0,0,0-.02,0-.04,0-.09-.02-.13-.03h0s0,0,0,0c-.05,0-.09-.02-.14-.02,0,0,0,0,0,0,0,0-.01,0-.02,0-.04,0-.09-.01-.14-.02,0,0-.02,0-.02,0-.05,0-.09-.01-.14-.01h0s0,0,0,0c-.05,0-.09,0-.14-.01,0,0,0,0-.01,0,0,0,0,0,0,0-.05,0-.1,0-.14,0,0,0-.02,0-.03,0-.05,0-.1,0-.14,0h-.01s0,0-.01,0c-.05,0-.1,0-.15,0C1.7,0,0,3.08,0,4.73l1.26-.03h9.71l-1.05-2.43Z"/>
        <path class="cls-1" d="m65.56,2.27s.02-.04.03-.07l.03-.06v-.02s.02-.03.03-.04c0,0,0-.01.01-.02,0-.02.01-.03.02-.04,0,0,0-.01.01-.02,0-.01.02-.03.03-.04,0,0,0-.01,0-.02,0-.02.02-.03.03-.05,0,0,0,0,0-.01.01-.02.02-.03.03-.05,0,0,0,0,0,0,.01-.02.03-.04.04-.05,0,0,0,0,0,0,.02-.02.03-.04.04-.06.02-.03.05-.06.07-.09,0,0,0,0,0,0,.08-.09.16-.18.24-.27,0,0,0,0,0,0h0s.06-.06.09-.08c0,0,0,0,0,0h0c.09-.08.19-.16.29-.24,0,0,0,0,0,0,.03-.02.07-.05.1-.07,0,0,0,0,0,0h0c.07-.05.14-.1.22-.14,0,0,0,0,0,0,.04-.02.07-.04.11-.07,0,0,0,0,0,0,0,0,0,0,0,0,.04-.02.08-.04.11-.06h0s0,0,0,0c.08-.04.16-.08.24-.12,0,0,0,0,.01,0,.04-.02.08-.04.12-.05,0,0,0,0,.01,0,.04-.02.08-.03.12-.05h0s.09-.03.13-.05c0,0,0,0,0,0,0,0,0,0,0,0,.04-.02.08-.03.13-.04,0,0,0,0,0,0,0,0,0,0,.01,0,.04-.01.08-.03.13-.04h0s0,0,.01,0c.09-.03.18-.05.27-.07,0,0,.01,0,.01,0,0,0,0,0,0,0,.04-.01.09-.02.13-.03,0,0,0,0,.01,0,0,0,0,0,.01,0,.04-.01.09-.02.13-.03,0,0,.01,0,.02,0,.04,0,.09-.02.14-.03h0s0,0,0,0c.05,0,.09-.02.14-.02,0,0,0,0,0,0,0,0,.01,0,.02,0,.05,0,.09-.01.14-.02,0,0,.02,0,.03,0,.05,0,.09-.01.14-.01h0s0,0,0,0c.05,0,.09,0,.14-.01,0,0,.01,0,.02,0,0,0,0,0,0,0,.05,0,.1,0,.14,0,0,0,.02,0,.03,0,.05,0,.09,0,.14,0h0s0,0,.01,0c.05,0,.1,0,.15,0,3.84,0,5.54,3.08,5.54,4.73l-1.26-.03h-9.71l1.05-2.43Z"/>
      </g>
      <g class="cls-5">
        <rect class="cls-4" x="8.97" width="57.54" height="14.66"/>
      </g>
      <g>
        <polygon class="cls-3" points="26.71 1.97 28.76 1.97 29.55 5.04 30.33 1.97 32.38 1.97 32.38 7.01 31.1 7.01 31.1 3.17 30.12 7.01 28.96 7.01 27.98 3.17 27.98 7.01 26.71 7.01 26.71 1.97"/>
        <path class="cls-3" d="m33.17,4.5c0-.82.23-1.46.69-1.92.46-.46,1.1-.69,1.91-.69s1.48.22,1.94.68c.45.45.68,1.08.68,1.89,0,.59-.1,1.07-.3,1.45-.2.38-.48.67-.86.88-.37.21-.84.32-1.4.32s-1.04-.09-1.41-.27c-.37-.18-.67-.47-.91-.86-.23-.39-.35-.88-.35-1.47m1.56,0c0,.51.09.87.28,1.1.19.22.45.33.77.33s.59-.11.78-.33c.18-.22.28-.61.28-1.17,0-.47-.1-.82-.29-1.04-.19-.22-.45-.33-.78-.33s-.57.11-.76.33c-.19.22-.28.59-.28,1.1"/>
        <path class="cls-3" d="m38.96,5.35l1.48-.09c.03.24.1.42.2.55.16.2.39.31.69.31.22,0,.39-.05.51-.16.12-.1.18-.22.18-.36s-.06-.25-.17-.35c-.11-.1-.38-.2-.8-.29-.68-.15-1.17-.36-1.46-.61-.29-.25-.44-.58-.44-.97,0-.26.08-.5.22-.73.15-.23.38-.41.68-.54.3-.13.71-.2,1.24-.2.64,0,1.13.12,1.47.36.34.24.54.62.6,1.14l-1.47.09c-.04-.23-.12-.39-.25-.49-.13-.1-.3-.16-.52-.16-.18,0-.32.04-.41.12-.09.08-.14.17-.14.28,0,.08.04.15.11.22.07.07.25.13.52.18.68.15,1.17.3,1.46.45.29.15.51.34.64.56.14.22.2.47.2.74,0,.32-.09.62-.27.89-.18.27-.43.48-.75.62-.32.14-.73.21-1.21.21-.86,0-1.45-.17-1.78-.49-.33-.33-.52-.75-.56-1.26"/>
        <polygon class="cls-3" points="43.96 1.97 48.69 1.97 48.69 3.22 47.11 3.22 47.11 7.01 45.55 7.01 45.55 3.22 43.96 3.22 43.96 1.97"/>
        <path class="cls-3" d="m19.22,7.9h2.59c.56,0,.99.13,1.27.4.28.27.42.65.42,1.14s-.15.91-.46,1.19c-.31.29-.77.43-1.4.43h-.85v1.87h-1.56v-5.04Zm1.56,2.15h.38c.3,0,.51-.05.63-.16.12-.1.18-.24.18-.4s-.05-.29-.16-.4c-.11-.11-.3-.16-.59-.16h-.44v1.12Z"/>
        <path class="cls-3" d="m24.11,10.42c0-.82.23-1.46.69-1.92.46-.46,1.1-.69,1.91-.69s1.48.22,1.94.68c.45.45.68,1.08.68,1.89,0,.59-.1,1.07-.3,1.45s-.48.67-.86.88c-.38.21-.84.32-1.4.32s-1.04-.09-1.41-.27c-.37-.18-.67-.47-.9-.86-.23-.39-.35-.88-.35-1.47m1.56,0c0,.51.1.87.28,1.1.19.22.45.33.77.33s.59-.11.78-.33c.18-.22.27-.61.27-1.17,0-.47-.09-.82-.29-1.04-.19-.22-.45-.33-.78-.33s-.57.11-.76.33c-.19.22-.28.59-.28,1.1"/>
        <path class="cls-3" d="m30.16,7.9h2.59c.56,0,.99.13,1.27.4.28.27.42.65.42,1.14s-.15.91-.46,1.19c-.31.29-.77.43-1.4.43h-.85v1.87h-1.56v-5.04Zm1.56,2.15h.38c.3,0,.51-.05.63-.16.12-.1.18-.24.18-.4s-.05-.29-.16-.4c-.11-.11-.3-.16-.59-.16h-.44v1.12Z"/>
        <path class="cls-3" d="m38.53,7.9h1.55v3c0,.3-.05.58-.14.84-.09.26-.24.49-.44.69-.2.2-.41.34-.62.42-.3.11-.67.17-1.09.17-.24,0-.51-.02-.8-.05-.29-.03-.53-.1-.73-.2-.2-.1-.37-.25-.53-.43-.16-.19-.27-.38-.33-.58-.1-.32-.14-.6-.14-.85v-3h1.55v3.07c0,.27.08.49.23.64.15.15.36.23.64.23s.48-.08.63-.23c.15-.15.23-.37.23-.65v-3.07Z"/>
        <polygon class="cls-3" points="41.12 7.9 42.67 7.9 42.67 11.7 45.1 11.7 45.1 12.94 41.12 12.94 41.12 7.9"/>
        <path class="cls-3" d="m48.91,12.11h-1.77l-.25.83h-1.59l1.89-5.04h1.7l1.89,5.04h-1.63l-.25-.83Zm-.32-1.09l-.56-1.81-.55,1.81h1.11Z"/>
        <path class="cls-3" d="m51.31,12.94v-5.04h2.59c.48,0,.85.04,1.1.12.25.08.46.23.61.46.16.22.23.5.23.82,0,.28-.06.52-.18.72-.12.2-.28.37-.49.49-.13.08-.32.15-.55.2.18.06.32.12.4.19.06.04.14.13.25.26.11.13.18.24.22.31l.75,1.46h-1.76l-.83-1.54c-.11-.2-.2-.33-.28-.39-.11-.08-.24-.12-.38-.12h-.14v2.04h-1.56Zm1.56-3h.66c.07,0,.21-.02.41-.07.1-.02.19-.07.25-.16.07-.08.1-.18.1-.29,0-.16-.05-.29-.15-.38-.1-.09-.3-.13-.58-.13h-.68v1.02Z"/>
      </g>
    </g>
  </g>
</svg>