<?xml version="1.0" encoding="UTF-8"?>
<svg id="Layer_2" data-name="Layer 2" xmlns="http://www.w3.org/2000/svg" viewBox="0 0 9.25 10.07">
  <defs>
    <style>
      .cls-1 {
        fill: #ed1c24;
        stroke-width: 0px;
      }
    </style>
  </defs>
  <g id="Layer_1-2" data-name="Layer 1">
    <g>
      <path class="cls-1" d="m1.78,3.31l-.03.06c-.34.7-.22,1.71.32,2.62.53.91,1.35,1.52,2.14,1.58h.07s.55-.39.55-.39c.03-.02.06-.03.1-.03.21,0,.57.21.94.56.38.36.68.78.82,1.12.07.17.13.41,0,.52l-.51.45c-.27.23-.63.31-.97.2-1.48-.48-2.93-1.78-3.96-3.55C.2,4.7-.21,2.81.1,1.3c.07-.34.33-.62.66-.73l.65-.21s.04,0,.07,0c.37,0,.83.86,1,1.64.14.63.05.99-.08,1.05l-.62.27Zm6.91-.77C8.07,1.34,7.02.44,5.72.02c-.09-.03-.19-.03-.28.02-.09.04-.15.12-.18.21-.06.19.04.4.24.46,1.11.36,2.01,1.13,2.54,2.16.53,1.02.62,2.21.26,3.31-.03.09-.02.19.02.28.04.09.12.15.22.18.19.06.4-.04.47-.24.42-1.28.32-2.66-.3-3.87"/>
      <g>
        <path class="cls-1" d="m4.46,3.86c.27.09.48.27.61.52.13.24.15.52.06.78-.03.09-.02.19.02.28.07.13.21.21.36.2.15-.01.28-.11.33-.25.15-.44.11-.93-.1-1.35-.21-.42-.59-.74-1.04-.88-.09-.03-.2-.02-.28.02-.09.04-.15.12-.19.21-.03.09-.02.19.02.28.04.09.12.15.22.18"/>
        <path class="cls-1" d="m5.2,1.59v.04s0-.04,0-.04c-.2-.06-.41.05-.47.24-.03.09-.02.19.02.28.04.09.12.15.21.18.68.22,1.25.7,1.57,1.34.33.63.39,1.37.16,2.04-.04.11-.02.23.05.33.07.09.18.15.3.15.16,0,.3-.1.35-.25.29-.86.21-1.8-.2-2.61-.41-.81-1.14-1.42-2-1.7"/>
      </g>
    </g>
  </g>
</svg>