<?xml version="1.0" encoding="UTF-8"?>
<svg id="Layer_2" data-name="Layer 2" xmlns="http://www.w3.org/2000/svg" viewBox="0 0 35 35">
  <defs>
    <style>
      .cls-1 {
        fill: #ed1c24;
      }

      .cls-1, .cls-2 {
        stroke-width: 0px;
      }

      .cls-2 {
        fill: #feebe7;
      }
    </style>
  </defs>
  <g id="Layer_1-2" data-name="Layer 1">
    <g>
      <path class="cls-2" d="m35,17.5c0,9.67-7.84,17.5-17.5,17.5S0,27.17,0,17.5,7.83,0,17.5,0s17.5,7.84,17.5,17.5"/>
      <path class="cls-1" d="m21.75,23.85c-.91.66-1.9,1.16-3.14,1.24v2.06h-2.14v-2.06c-1.32-.17-2.31-.58-3.14-1.24-1.07-.82-1.4-1.73-1.57-2.89l3.3-.82c0,1.07,1.07,2.31,2.8,2.31.99,0,2.15-.49,2.15-1.73,0-1.07-1.16-1.82-2.31-2.06-1.24-.25-3.79-1.16-4.46-1.9-.66-.74-.91-1.81-.91-3.13,0-1.07.49-2.14,1.24-2.8.74-.66,1.65-1.07,2.89-1.24v-1.73h2.14v1.73c1.16.17,2.15.5,2.97,1.15.91.83,1.4,1.81,1.4,2.47l-3.3.74c0-.83-1.24-1.82-2.06-1.82-1.07,0-1.9.33-1.9,1.65,0,.99.74,1.24,1.98,1.65,2.15.66,3.71,1.57,4.46,2.31.74.74,1.07,1.73,1.07,2.89.08,1.48-.41,2.48-1.48,3.22"/>
    </g>
  </g>
</svg>