<?xml version="1.0" encoding="UTF-8"?>
<svg id="Layer_2" data-name="Layer 2" xmlns="http://www.w3.org/2000/svg" viewBox="0 0 43.96 43.97">
  <defs>
    <style>
      .cls-1 {
        fill: #ed1c24;
      }

      .cls-1, .cls-2 {
        stroke-width: 0px;
      }

      .cls-2 {
        fill: #fff;
      }
    </style>
  </defs>
  <g id="Layer_1-2" data-name="Layer 1">
    <g>
      <path class="cls-1" d="m21.98,43.97c12.14,0,21.98-9.84,21.98-21.98S34.12,0,21.98,0,0,9.84,0,21.98s9.84,21.98,21.98,21.98"/>
      <path class="cls-2" d="m32.34,17.62s-.03,0-.05,0c-1.11-4.82-5.36-8.41-10.46-8.41s-9.58,3.79-10.55,8.8c-.94.17-1.65.99-1.65,1.99v3.99c0,1.12.9,2.02,2,2.02.62,0,1.17-.29,1.54-.75.88,2.34,2.69,4.23,4.97,5.22,0-.01.05-.1.1-.16.04-.05.08-.08.11-.08.04,0,.07.01.1.03-.53-.4-2.44-2.41-2.85-5.23-.18-1.24.75-2.46,1.83-2.66,1.74-.32,3.47-.69,5.2-1.01,1.1-.2,1.86-.81,2.32-1.82.11-.23.27-.71.34-1.4.02-.1.1-.18.21-.18.07,0,.13.04.17.09l.05-.03c.69.99,2.04,3.19,2.24,5.52.22,2.65.1,4.47-1.93,6.33h0s-.04.08-.04.12c0,.06.03.11.07.14.02,0,.03.02.05.02.01,0,.03,0,.04,0,.01,0,.03,0,.04,0,.03-.01.06-.03.08-.05,2.06-1.13,3.63-3.02,4.36-5.29.29.44.75.75,1.29.86-.86,3.91-4.35,6.36-8.67,6.73-.26-.64-.89-1.1-1.65-1.1-.98,0-1.77.77-1.77,1.73s.79,1.73,1.77,1.73c.79,0,1.45-.51,1.68-1.2,5-.41,9.01-3.38,9.85-8,.74-.31,1.26-1.04,1.26-1.88v-4.04c.01-1.13-.91-2.04-2.04-2.04m-1.85,1.16c-1.3-3.53-4.69-6.06-8.66-6.06s-7.33,2.51-8.65,6.02c-.07-.08-.14-.15-.22-.22.74-4.28,4.43-7.53,8.87-7.53s8.09,3.22,8.86,7.47c-.08.1-.15.21-.2.32"/>
    </g>
  </g>
</svg>