<?xml version="1.0" encoding="UTF-8"?>
<svg id="Layer_2" data-name="Layer 2" xmlns="http://www.w3.org/2000/svg" viewBox="0 0 20 20">
  <defs>
    <style>
      .cls-1 {
        fill: #ed1c24;
      }

      .cls-1, .cls-2 {
        stroke-width: 0px;
      }

      .cls-2 {
        fill: #fff;
      }
    </style>
  </defs>
  <g id="Layer_1-2" data-name="Layer 1">
    <g>
      <path class="cls-2" d="m20,10c0,5.52-4.48,10-10,10S0,15.52,0,10,4.48,0,10,0s10,4.48,10,10"/>
      <path class="cls-1" d="m6.14,6.75c.28,0,.52.1.72.3.2.2.3.44.3.72v6.9c0,.28-.1.52-.3.72-.2.2-.44.3-.72.3h-.81c-.28,0-.52-.1-.72-.3-.2-.2-.3-.44-.3-.72v-6.9c0-.28.1-.52.3-.72.2-.2.44-.3.72-.3h.81Zm8.73,1.03c.24.14.44.34.59.59.15.25.22.52.22.81v4.87c0,.45-.16.83-.48,1.15-.32.32-.7.48-1.15.48h-5.48c-.28,0-.52-.1-.72-.3-.2-.2-.3-.44-.3-.72V4.93c0-.17.06-.31.18-.43.12-.12.26-.18.43-.18h4.26c.17,0,.35.04.56.13.2.09.36.19.48.31l.96.96c.12.12.22.28.3.48.08.2.13.39.13.56v1.03Zm-4.67,6.27v-.81c0-.06-.02-.11-.06-.14-.04-.04-.09-.06-.15-.06h-.81c-.06,0-.11.02-.15.06-.04.04-.06.09-.06.14v.81c0,.06.02.11.06.15s.09.06.15.06h.81c.06,0,.11-.02.15-.06s.06-.09.06-.15m0-1.62v-.81c0-.06-.02-.11-.06-.15-.04-.04-.09-.06-.15-.06h-.81c-.06,0-.11.02-.15.06-.04.04-.06.09-.06.15v.81c0,.06.02.11.06.14s.09.06.15.06h.81c.06,0,.11-.02.15-.06s.06-.09.06-.14m0-1.62v-.81c0-.06-.02-.11-.06-.14-.04-.04-.09-.06-.15-.06h-.81c-.06,0-.11.02-.15.06-.04.04-.06.09-.06.14v.81c0,.06.02.11.06.14.04.04.09.06.15.06h.81c.06,0,.11-.02.15-.06.04-.04.06-.09.06-.14m1.62,3.25v-.81c0-.06-.02-.11-.06-.14-.04-.04-.09-.06-.15-.06h-.81c-.06,0-.11.02-.15.06-.04.04-.06.09-.06.14v.81c0,.06.02.11.06.15.04.04.09.06.15.06h.81c.06,0,.11-.02.15-.06.04-.04.06-.09.06-.15m0-1.62v-.81c0-.06-.02-.11-.06-.15-.04-.04-.09-.06-.15-.06h-.81c-.06,0-.11.02-.15.06-.04.04-.06.09-.06.15v.81c0,.06.02.11.06.14.04.04.09.06.15.06h.81c.06,0,.11-.02.15-.06.04-.04.06-.09.06-.14m0-1.62v-.81c0-.06-.02-.11-.06-.14-.04-.04-.09-.06-.15-.06h-.81c-.06,0-.11.02-.15.06-.04.04-.06.09-.06.14v.81c0,.06.02.11.06.14.04.04.09.06.15.06h.81c.06,0,.11-.02.15-.06.04-.04.06-.09.06-.14m1.62,3.25v-.81c0-.06-.02-.11-.06-.14-.04-.04-.09-.06-.15-.06h-.81c-.06,0-.11.02-.15.06-.04.04-.06.09-.06.14v.81c0,.06.02.11.06.15.04.04.09.06.15.06h.81c.06,0,.11-.02.15-.06s.06-.09.06-.15m0-1.62v-.81c0-.06-.02-.11-.06-.15-.04-.04-.09-.06-.15-.06h-.81c-.06,0-.11.02-.15.06-.04.04-.06.09-.06.15v.81c0,.06.02.11.06.14.04.04.09.06.15.06h.81c.06,0,.11-.02.15-.06s.06-.09.06-.14m0-1.62v-.81c0-.06-.02-.11-.06-.14-.04-.04-.09-.06-.15-.06h-.81c-.06,0-.11.02-.15.06-.04.04-.06.09-.06.14v.81c0,.06.02.11.06.14.04.04.09.06.15.06h.81c.06,0,.11-.02.15-.06.04-.04.06-.09.06-.14m.61-2.44v-1.62h-1.02c-.17,0-.31-.06-.43-.18-.12-.12-.18-.26-.18-.43v-1.01h-4.06v3.25h5.68Z"/>
    </g>
  </g>
</svg>