<?xml version="1.0" encoding="UTF-8"?>
<svg id="Layer_2" data-name="Layer 2" xmlns="http://www.w3.org/2000/svg" viewBox="0 0 10.46 9.71">
  <defs>
    <style>
      .cls-1 {
        fill: #ed1c24;
        stroke-width: 0px;
      }
    </style>
  </defs>
  <g id="Layer_1-2" data-name="Layer 1">
    <path class="cls-1" d="m9.34,5.6h-2.92c-.04-.18-.07-.35-.07-.54,0-.9.51-1.71,1.29-2.12l.14-.13c.48-.25.81-.74.81-1.32,0-.82-.67-1.49-1.5-1.49h-3.74c-.83,0-1.5.67-1.5,1.49,0,.58.33,1.07.81,1.32l.13.13c.8.41,1.29,1.23,1.29,2.12,0,.19-.03.36-.07.54H1.12c-.62,0-1.12.5-1.12,1.12v.75c0,.62.5,1.12,1.12,1.12,0,.64.57,1.12,1.25,1.12h5.71c.68,0,1.25-.49,1.25-1.12.62,0,1.12-.5,1.12-1.12v-.75c0-.62-.5-1.12-1.12-1.12m-5.28-2.61h.43c.21,0,.38-.17.38-.37s-.17-.38-.38-.38h-1.13c-.41,0-.75-.33-.75-.75s.34-.75.75-.75h3.74c.41,0,.75.33.75.75s-.34.75-.75.75h-1.19c-.21,0-.37.17-.37.38s.17.37.37.37h.5c-.64.71-.91,1.67-.75,2.61h-.84c.16-.94-.11-1.9-.75-2.61m5.65,4.48c0,.21-.17.37-.37.37h-.65c-.21,0-.37.17-.37.37,0,.17.12.31.28.35v.02c0,.19-.22.37-.51.37H2.37c-.29,0-.51-.18-.51-.37h5.32c.21,0,.37-.17.37-.37s-.17-.37-.37-.37H1.12c-.21,0-.37-.17-.37-.37v-.75c0-.2.16-.37.37-.37h8.22c.21,0,.37.17.37.37v.75Z"/>
  </g>
</svg>