<?xml version="1.0" encoding="UTF-8"?>
<svg id="Layer_2" data-name="Layer 2" xmlns="http://www.w3.org/2000/svg" viewBox="0 0 44 44">
  <defs>
    <style>
      .cls-1 {
        fill: #ed1c24;
      }

      .cls-1, .cls-2 {
        stroke-width: 0px;
      }

      .cls-2 {
        fill: #fff;
      }
    </style>
  </defs>
  <g id="Layer_1-2" data-name="Layer 1">
    <g>
      <path class="cls-1" d="m44,22c0,12.15-9.85,22-22,22S0,34.15,0,22,9.85,0,22,0s22,9.85,22,22"/>
      <path class="cls-2" d="m33.45,11.49c-1.38-1.39-3.6-1.39-4.98,0l-8.8,8.88,4.98,5.03,8.8-8.88c1.38-1.39,1.38-3.64,0-5.03m-10.79,8.99l-.59-.6,7.44-7.51c.16-.16.43-.16.6,0,.16.16.16.43,0,.6l-7.44,7.51Zm1.24,1.25l-.59-.6,8.06-8.13c.16-.17.43-.17.59,0,.16.17.16.43,0,.6l-8.06,8.14Zm1.24,1.25l-.59-.6,7.44-7.51c.16-.17.43-.16.59,0,.16.16.16.43,0,.6l-7.44,7.51Zm-7.07,6.45l-.45-.46,4.15-4.19-1.63-1.65-4.15,4.19-.44-.45-.98.51-3.26,5.33.97.98,5.24-3.26.55-1.01Zm-3.01-19.14c-.48,0-.94.07-1.38.18.04.04.09.07.13.11l2.01,2.02c1.02,1.03,1.02,2.7,0,3.73-1.02,1.03-2.68,1.03-3.7,0l-2-2.02c-.1-.11-.19-.22-.28-.34-.22.6-.34,1.25-.34,1.92,0,3.1,2.49,5.61,5.56,5.61s5.56-2.51,5.56-5.61-2.49-5.61-5.56-5.61m16.99,22.2c1.21-1.22,1.21-3.2,0-4.42l-4.44-4.48-4.37,4.41,4.44,4.48c1.21,1.22,3.16,1.22,4.37,0m-2.96-2.99c.5-.5,1.31-.5,1.81,0,.5.51.5,1.32,0,1.83-.5.5-1.31.5-1.81,0-.5-.51-.5-1.32,0-1.83"/>
    </g>
  </g>
</svg>