<?xml version="1.0" encoding="UTF-8"?>
<svg id="Layer_2" data-name="Layer 2" xmlns="http://www.w3.org/2000/svg" viewBox="0 0 43.97 43.97">
  <defs>
    <style>
      .cls-1 {
        fill: #ed1c24;
        stroke-width: 0px;
      }
    </style>
  </defs>
  <g id="Layer_1-2" data-name="Layer 1">
    <path class="cls-1" d="m21.98,43.97c12.14,0,21.98-9.84,21.98-21.98S34.12,0,21.98,0,0,9.84,0,21.98s9.84,21.98,21.98,21.98m-12.86-24.92l-1.3-1.72,5.58-4.92s1.19-1.11,2.72-1.08c0,0,2.17-.28,2.92,2.38.33,1.04,1.79,9.43,2.06,10.54.28,1.11.93,2.04,1.47,2.02.5-.01,1.1-.32,1.9-1.49.89-1.41,1.8-2.5,2.39-4.92.16-1.07.3-2.89-1.81-2.96-1.11-.03-1.86.5-1.86.5,0,0,.01-2.74,3.08-5.07,1.01-.83,4.96-2.51,7.24-.08,1.12,1.33,1.57,3.11.77,5.96-1.32,4.66-4.97,9.12-6.5,10.88,0,0-3.98,4.85-7.07,5.4-.56.08-2.36.36-3.71-2.08-1.15-2.5-2.2-6.14-3.19-10.29,0,0-.71-3.07-1.65-4.01-.27-.28-.79-.57-1.3-.31-.45.27-1.74,1.24-1.74,1.24"/>
  </g>
</svg>