<?xml version="1.0" encoding="UTF-8"?>
<svg id="Layer_2" data-name="Layer 2" xmlns="http://www.w3.org/2000/svg" viewBox="0 0 35 35">
  <defs>
    <style>
      .cls-1 {
        fill: #ed1c24;
      }

      .cls-1, .cls-2, .cls-3 {
        stroke-width: 0px;
      }

      .cls-2 {
        fill: #eae6f3;
      }

      .cls-3 {
        fill: #feebe7;
      }
    </style>
  </defs>
  <g id="Layer_1-2" data-name="Layer 1">
    <g>
      <path class="cls-3" d="m17.5,0C7.83,0,0,7.84,0,17.5s7.83,17.5,17.5,17.5,17.5-7.83,17.5-17.5S27.16,0,17.5,0"/>
      <path class="cls-1" d="m13.37,8.53c0-.23.06-.45.17-.65.21-.38.59-.64,1.02-.64h6.56c.43,0,.83.25,1.02.64.11.2.17.42.17.65v1.26c0,.71-.53,1.29-1.19,1.29h-6.56c-.66,0-1.19-.58-1.19-1.29v-1.26Z"/>
      <path class="cls-1" d="m27.08,26.02c0,.96-.78,1.73-1.73,1.73h-15.68c-.96,0-1.73-.78-1.73-1.73v-15.68c0-.96.78-1.73,1.73-1.73h1.74c0,.29,0,.56,0,.88v1.72c0,.96.78,1.75,1.74,1.75h8.71c.96,0,1.74-.79,1.74-1.75v-1.73c0-.32,0-.88,0-.88h1.74,0c.96,0,1.74.77,1.75,1.73v15.68Z"/>
      <path class="cls-2" d="m20.41,15.93l-4.13,4.51-1.69-1.89c-.2-.26-.53-.38-.85-.32-.32.06-.58.29-.67.6-.1.31-.01.65.22.88l2.33,2.61c.16.18.4.29.64.29h0c.24,0,.48-.1.65-.28l4.78-5.22h0c.3-.36.27-.89-.08-1.21-.35-.32-.88-.3-1.21.03"/>
    </g>
  </g>
</svg>