<?xml version="1.0" encoding="UTF-8"?>
<svg id="Layer_2" data-name="Layer 2" xmlns="http://www.w3.org/2000/svg" viewBox="0 0 43.97 43.97">
  <defs>
    <style>
      .cls-1 {
        fill: #ed1c24;
        stroke-width: 0px;
      }
    </style>
  </defs>
  <g id="Layer_1-2" data-name="Layer 1">
    <path class="cls-1" d="m21.98,43.97C9.84,43.97,0,34.12,0,21.98S9.84,0,21.98,0s21.98,9.84,21.98,21.98-9.84,21.98-21.98,21.98m-1.73-12.49c0,1.43,1.02,2.58,2.28,2.58s2.28-1.16,2.28-2.58v-9.25c0-1.43-1.02-2.58-2.28-2.58s-2.28,1.16-2.28,2.58v9.25Zm2.28-21.6c-1.51,0-2.74,1.39-2.74,3.1s1.23,3.1,2.74,3.1,2.74-1.39,2.74-3.1-1.23-3.1-2.74-3.1"/>
  </g>
</svg>