<?xml version="1.0" encoding="UTF-8"?>
<svg id="Layer_2" data-name="Layer 2" xmlns="http://www.w3.org/2000/svg" viewBox="0 0 44 44">
  <defs>
    <style>
      .cls-1 {
        fill: #ed1c24;
        stroke-width: 0px;
      }
    </style>
  </defs>
  <g id="Layer_1-2" data-name="Layer 1">
    <path class="cls-1" d="m22,44C9.85,44,0,34.15,0,22S9.85,0,22,0s22,9.85,22,22-9.85,22-22,22m-2.78-9.4c0,.62.5,1.13,1.13,1.13h3.29c.62,0,1.13-.51,1.13-1.13v-3.29c0-.62-.5-1.13-1.13-1.13h-3.29c-.62,0-1.13.51-1.13,1.13v3.29Zm9.86-24.96c-1.84-1.33-4.15-2.08-6.94-2.08-2.12,0-3.9.55-5.36,1.49-2.13,1.36-3.34,3.64-3.63,6.73-.02.24.15.75.94.75h3.68c.53,0,.69-.52.73-.77.11-.7.39-1.51.83-2.21.6-.95,1.61-1.16,3.03-1.16s2.45.13,2.99.89c.55.77.82,1.62.82,2.55,0,.81-.41,1.56-.9,2.23-.27.39-.63.76-1.07,1.09,0,0-2.9,1.86-4.17,3.35-.63.74-.77,2.71-.84,4.25,0,.24.1.72.71.72h3.78c.47,0,.67-.46.69-.68.04-.45.1-1.46.18-1.71.23-.74.87-1.38,1.58-1.94l1.47-1.01c1.33-1.03,2.39-1.88,2.85-2.55.8-1.09,1.36-2.44,1.36-4.04,0-2.61-.92-4.57-2.76-5.9"/>
  </g>
</svg>